# xmcd
#
# Track frame offsets:
# 150
# 24442
# 37100
# 51262
# 78837
# 92920
# 110750
# 127695
# 141485
# 161862
# 181972
# 189622
# 250542
#
# Disc length: 3442 seconds
#
#
# Revision: 8
# Processed by: cddbd v1.5.2PL0 Copyright (c) Steve Scherf et al.
# Submitted via: FreeRIP 2.96 
#
DISCID=af0d700d
DTITLE=Stevie Ray Vaughan and Double Trouble - Soul To Soul
DYEAR=1985
DGENRE=Texas Blues
TTITLE0=Say What!
TTITLE1=Lookin' Out The Window
TTITLE2=Look At Little Sister
TTITLE3=Ain't Gone 'N' Give Up On Love
TTITLE4=Gone Home
TTITLE5=Change It
TTITLE6=You'll Be Mine
TTITLE7=Empty Arms
TTITLE8=Come On (Part III)
TTITLE9=Life Without You
TTITLE10=SRV Speaks
TTITLE11=Little Wing/Third Stone From The Sun
TTITLE12=Slip Slidin' Slim
EXTD=420!
EXTT0=
EXTT1=
EXTT2=
EXTT3=
EXTT4=
EXTT5=
EXTT6=
EXTT7=
EXTT8=
EXTT9=
EXTT10=
EXTT11=
EXTT12=
PLAYORDER=
